<svg width="41" height="32" viewBox="0 0 41 32" fill="none" xmlns="http://www.w3.org/2000/svg">
<rect y="10" width="37" height="21" rx="2" fill="#66965E"/>
<path d="M6.2998 20.5C6.30029 17.9999 10.1005 17.9998 10.1 20.4999C10.0995 22.9999 6.29932 23.0001 6.2998 20.5Z" stroke="white"/>
<path d="M26.7998 20.4751C26.8003 17.975 30.6005 17.975 30.6 20.475C30.5995 22.9751 26.7993 22.9752 26.7998 20.4751Z" stroke="white"/>
<path d="M6 28C5.40864 26.255 4.79161 25.1679 3 25V16C4.78943 15.4449 5.4415 14.3882 6 13H31C31.5 15 32.5 15.5 33.5 16V25C32 25.5 31.603 26.2462 31 28H6Z" stroke="white"/>
<path d="M19.7 19C19.7 18.2685 19.0579 17.8938 18.4 17.9337M17 22C17.3302 22.6604 17.7466 23.2612 18.4 23.2612M18.4 23.2612C18.7201 23.2305 19.1616 23.0095 19.5 22.5C19.7878 21.9139 19.7673 21.5861 19.5 21C19.2944 20.7037 19.0509 20.6075 18.5023 20.5C17.7348 20.4081 17 20 17 19.5C17 18.4753 17.7088 17.9756 18.4 17.9337M18.4 23.2612V24.188M18.4 17.9337V17M18.5036 15C11.5066 14.9999 11 26 18.5023 26C25.5 26 25.5006 15 18.5036 15Z" stroke="white"/>
<path d="M38 29.5527C38 31.0132 37.0002 31.5 36.5 31.5C35.9998 31.5 37.4524 31.5 39 31.5M38 29.5527C38 28.0921 38 13 38 13C38 13 38.7315 13.0013 39 13.0901M38 29.5527C37.9886 30.7532 38.2083 31.1787 39 31.5M39 13.0901C39.5527 13.2729 39.8488 13.7659 40 14.9474V31.5C40 31.5 39.8299 31.5 39 31.5M39 13.0901L39 31.5" stroke="#66965E"/>
<path d="M22 9.5H30L27 8.5L26.5 7.5L28 5.5L25 2L23 3L21.5 2.5L21 0.5H16L15.5 2.5L14 3L12 1.5L8.5 5.5L10 7.5L9.5 8.5L7 9.5H14.5C15.5 8 16.6857 7.24051 18 7.24051C19.2581 7.24051 21 7.5 22 9.5Z" fill="black" stroke="black"/>
</svg>
